<?xml version="1.0" encoding="utf-8"?>
<!DOCTYPE svg PUBLIC "-//W3C//DTD SVG 1.1//EN" "http://www.w3.org/Graphics/SVG/1.1/DTD/svg11.dtd">
<svg xmlns="http://www.w3.org/2000/svg" data-v-ec8e1858="" id="qr_bill_svg" width="210mm" height="110mm" role="img" font-family="Frutiger, Helvetica, Arial, Liberation Sans, sans-serif"><title text="Vorschau des generierten Einzahlungsscheins"/><rect width="210mm" height="110mm" fill="white"/><!----><text x="105mm" y="3mm" text-anchor="middle" font-size="6pt" line-height="9pt">QR-RECHNUNG.NET</text><!----><line x1="0mm" y1="5mm" x2="202.5mm" y2="5mm" stroke="black" stroke-width="0.1mm"/><line x1="204.8mm" y1="5mm" x2="210mm" y2="5mm" stroke="black" stroke-width="0.1mm"/><line x1="62mm" y1="5mm" x2="62mm" y2="102.5mm" stroke="black" stroke-width="0.1mm"/><line x1="62mm" y1="104.8mm" x2="62mm" y2="110mm" stroke="black" stroke-width="0.1mm"/><svg x="202mm" y="3.5mm" width="3mm" height="3mm" preserveAspectRatio="none"><svg viewBox="0 0 3 3"><g stroke-width="0" transform="rotate(-180, 1.5, 1.5)"><path d="m 0.7497111,0.25011393 c -0.275,0 -0.4997111,0.22506119 -0.4997111,0.4997111 0,0.27464977 0.2247111,0.50022787 0.4997111,0.50022787 0.0917824,0 0.17804384,-0.025556 0.252181,-0.069246 l 0.31781,0.3193603 H 1.6762695 L 2.5914591,0.58859456 a 0.12499473,0.12499473 0 0 0 0,-0.17673341 0.12499473,0.12499473 0 0 0 -0.091467,-0.0366902 0.12499473,0.12499473 0 0 0 -0.091984,0.0366902 L 1.4995361,1.3213664 1.1791422,1.0045898 c 0.044738,-0.0748521 0.070797,-0.16183697 0.070797,-0.25476477 0,-0.27464991 -0.2252279,-0.4997111 -0.5002281,-0.4997111 z M 0.736792,0.50022786 c 0.00436,-2.1246e-4 0.008492,0 0.0129191,0 0.14166667,0 0.25011393,0.11005148 0.25011393,0.24959717 0,0.0636389 -0.0225135,0.12100308 -0.0604615,0.1648478 a 0.12499473,0.12499473 0 0 0 -0.0144694,0.0118856 0.12499473,0.12499473 0 0 0 -0.0108521,0.0134359 c -0.0434231,0.0373737 -0.10055177,0.0599447 -0.16433104,0.0599447 -0.1416667,0 -0.24959717,-0.11056821 -0.24959717,-0.25011393 0,-0.13518491 0.10152763,-0.24301071 0.23667818,-0.24959724 z" fill="black"/><path d="m 1.3198161,1.5001668 5.167e-4,5.168e-4 -0.31781,0.3183268 C 0.92828244,1.7751533 0.84179711,1.749764 0.74982503,1.749764 c -0.275,0 -0.4997111,0.2255778 -0.4997111,0.5002278 0,0.2746499 0.2247111,0.5002278 0.4997111,0.5002278 0.27499997,0 0.50022787,-0.2255779 0.50022787,-0.5002278 0,-0.092955 -0.026035,-0.1804151 -0.070797,-0.2552815 l 0.38809,-0.3865397 a 0.12499473,0.12499473 0 0 0 0.024288,-0.019637 0.12499473,0.12499473 0 0 0 0.017053,-0.021187 l 0.067696,-0.067179 z M 1.8748209,1.749764 a 0.12499473,0.12499473 0 0 0 -0.091467,0.03669 0.12499473,0.12499473 0 0 0 0,0.1767334 l 0.624768,0.6252849 a 0.12499473,0.12499473 0 0 0 0.1834514,0 0.12499473,0.12499473 0 0 0 0,-0.1767334 L 1.966805,1.7864542 a 0.12499473,0.12499473 0 0 0 -0.091984,-0.03669 z m -1.137915,0.2501139 c 0.00436,-2.134e-4 0.008492,0 0.0129191,0 0.0636328,0 0.12042862,0.022209 0.16381428,0.059428 a 0.12499473,0.12499473 0 0 0 0.0113688,0.013953 0.12499473,0.12499473 0 0 0 0.0129191,0.0093 c 0.0390201,0.044089 0.0620117,0.1028059 0.0620117,0.1674316 0,0.1395456 -0.10844726,0.250114 -0.25011393,0.250114 -0.1416667,0 -0.24959717,-0.1105684 -0.24959717,-0.250114 0,-0.135185 0.10152763,-0.2434971 0.23667804,-0.2501139 z" fill="black"/></g></svg></svg><svg x="60.5mm" y="102mm" width="3mm" height="3mm" preserveAspectRatio="none"><svg viewBox="0 0 3 3"><g stroke-width="0" transform="rotate(-90, 1.5, 1.5)"><path d="m 0.7497111,0.25011393 c -0.275,0 -0.4997111,0.22506119 -0.4997111,0.4997111 0,0.27464977 0.2247111,0.50022787 0.4997111,0.50022787 0.0917824,0 0.17804384,-0.025556 0.252181,-0.069246 l 0.31781,0.3193603 H 1.6762695 L 2.5914591,0.58859456 a 0.12499473,0.12499473 0 0 0 0,-0.17673341 0.12499473,0.12499473 0 0 0 -0.091467,-0.0366902 0.12499473,0.12499473 0 0 0 -0.091984,0.0366902 L 1.4995361,1.3213664 1.1791422,1.0045898 c 0.044738,-0.0748521 0.070797,-0.16183697 0.070797,-0.25476477 0,-0.27464991 -0.2252279,-0.4997111 -0.5002281,-0.4997111 z M 0.736792,0.50022786 c 0.00436,-2.1246e-4 0.008492,0 0.0129191,0 0.14166667,0 0.25011393,0.11005148 0.25011393,0.24959717 0,0.0636389 -0.0225135,0.12100308 -0.0604615,0.1648478 a 0.12499473,0.12499473 0 0 0 -0.0144694,0.0118856 0.12499473,0.12499473 0 0 0 -0.0108521,0.0134359 c -0.0434231,0.0373737 -0.10055177,0.0599447 -0.16433104,0.0599447 -0.1416667,0 -0.24959717,-0.11056821 -0.24959717,-0.25011393 0,-0.13518491 0.10152763,-0.24301071 0.23667818,-0.24959724 z" fill="black"/><path d="m 1.3198161,1.5001668 5.167e-4,5.168e-4 -0.31781,0.3183268 C 0.92828244,1.7751533 0.84179711,1.749764 0.74982503,1.749764 c -0.275,0 -0.4997111,0.2255778 -0.4997111,0.5002278 0,0.2746499 0.2247111,0.5002278 0.4997111,0.5002278 0.27499997,0 0.50022787,-0.2255779 0.50022787,-0.5002278 0,-0.092955 -0.026035,-0.1804151 -0.070797,-0.2552815 l 0.38809,-0.3865397 a 0.12499473,0.12499473 0 0 0 0.024288,-0.019637 0.12499473,0.12499473 0 0 0 0.017053,-0.021187 l 0.067696,-0.067179 z M 1.8748209,1.749764 a 0.12499473,0.12499473 0 0 0 -0.091467,0.03669 0.12499473,0.12499473 0 0 0 0,0.1767334 l 0.624768,0.6252849 a 0.12499473,0.12499473 0 0 0 0.1834514,0 0.12499473,0.12499473 0 0 0 0,-0.1767334 L 1.966805,1.7864542 a 0.12499473,0.12499473 0 0 0 -0.091984,-0.03669 z m -1.137915,0.2501139 c 0.00436,-2.134e-4 0.008492,0 0.0129191,0 0.0636328,0 0.12042862,0.022209 0.16381428,0.059428 a 0.12499473,0.12499473 0 0 0 0.0113688,0.013953 0.12499473,0.12499473 0 0 0 0.0129191,0.0093 c 0.0390201,0.044089 0.0620117,0.1028059 0.0620117,0.1674316 0,0.1395456 -0.10844726,0.250114 -0.25011393,0.250114 -0.1416667,0 -0.24959717,-0.1105684 -0.24959717,-0.250114 0,-0.135185 0.10152763,-0.2434971 0.23667804,-0.2501139 z" fill="black"/></g></svg></svg><!----><svg x="0mm" y="5mm" width="62mm" height="105mm" class="receipt"><svg x="5mm" y="5mm" width="52mm" height="95mm" class="innerReceipt"><text x="0mm" y="3mm" font-size="11pt" font-weight="bold">Empfangsschein</text><text x="0mm" y="3.65mm"><tspan x="0mm" dy="18pt" font-size="6pt" line-height="9pt" font-weight="bold">Konto / Zahlbar an</tspan><tspan x="0mm" dy="9pt" font-size="8pt" line-height="9pt">CH65 0900 0000 8734 7592 5</tspan><tspan x="0mm" dy="9pt" font-size="8pt" line-height="9pt">Christian Kuster</tspan><tspan x="0mm" dy="9pt" font-size="8pt" line-height="9pt">Höhenstrasse 21</tspan><tspan x="0mm" dy="9pt" font-size="8pt" line-height="9pt">8342 Wernetshausen</tspan></text><text x="0mm" y="42mm" font-size="6pt" line-height="9pt" font-weight="bold">Zahlbar durch (Name/Adresse)</text><svg x="-0.3mm" y="42.7mm" width="52.6mm" height="20.6mm"><rect x="0.3mm" y="0.3mm" width="3mm" height="0.2645833333333333mm" fill="black" stroke="none"/><rect x="0.3mm" y="0.3mm" width="0.2645833333333333mm" height="3mm" fill="black" stroke="none"/><rect x="49.3mm" y="0.3mm" width="3mm" height="0.2645833333333333mm" fill="black" stroke="none"/><rect x="52.03541666666666mm" y="0.3mm" width="0.2645833333333333mm" height="3mm" fill="black" stroke="none"/><rect x="0.3mm" y="20.035416666666666mm" width="3mm" height="0.2645833333333333mm" fill="black" stroke="none"/><rect x="0.3mm" y="17.3mm" width="0.2645833333333333mm" height="3mm" fill="black" stroke="none"/><rect x="49.3mm" y="20.035416666666666mm" width="3mm" height="0.2645833333333333mm" fill="black" stroke="none"/><rect x="52.03541666666666mm" y="17.3mm" width="0.2645833333333333mm" height="3mm" fill="black" stroke="none"/></svg><text x="0mm" y="66mm" font-size="6pt" line-height="9pt" font-weight="bold">Währung</text><text x="0mm" y="70mm" font-size="8pt" line-height="9pt">CHF</text><text x="22mm" y="66mm" font-size="6pt" line-height="9pt" font-weight="bold">Betrag</text><svg x="21.7mm" y="66.7mm" width="30.6mm" height="10.6mm"><rect x="0.3mm" y="0.3mm" width="3mm" height="0.2645833333333333mm" fill="black" stroke="none"/><rect x="0.3mm" y="0.3mm" width="0.2645833333333333mm" height="3mm" fill="black" stroke="none"/><rect x="27.3mm" y="0.3mm" width="3mm" height="0.2645833333333333mm" fill="black" stroke="none"/><rect x="30.035416666666666mm" y="0.3mm" width="0.2645833333333333mm" height="3mm" fill="black" stroke="none"/><rect x="0.3mm" y="10.035416666666668mm" width="3mm" height="0.2645833333333333mm" fill="black" stroke="none"/><rect x="0.3mm" y="7.300000000000001mm" width="0.2645833333333333mm" height="3mm" fill="black" stroke="none"/><rect x="27.3mm" y="10.035416666666668mm" width="3mm" height="0.2645833333333333mm" fill="black" stroke="none"/><rect x="30.035416666666666mm" y="7.300000000000001mm" width="0.2645833333333333mm" height="3mm" fill="black" stroke="none"/></svg><!----><text x="52mm" y="80mm" text-anchor="end" font-size="6pt" line-height="9pt" font-weight="bold">Annahmestelle</text></svg></svg><svg x="62mm" y="5mm" width="148mm" height="105mm" class="payment"><svg x="5mm" y="5mm" width="138mm" height="95mm" class="innerPayment"><text x="0mm" y="3mm" font-size="11pt" font-weight="bold">Zahlteil</text><svg id="qr_code_svg" width="46mm" height="46mm" x="0mm" y="12mm"><svg viewBox="0 0 53 53"><path d="M0,0l1,0 0,1 -1,0 0,-1z M1,0l1,0 0,1 -1,0 0,-1z M2,0l1,0 0,1 -1,0 0,-1z M3,0l1,0 0,1 -1,0 0,-1z M4,0l1,0 0,1 -1,0 0,-1z M5,0l1,0 0,1 -1,0 0,-1z M6,0l1,0 0,1 -1,0 0,-1z M8,0l1,0 0,1 -1,0 0,-1z M9,0l1,0 0,1 -1,0 0,-1z M11,0l1,0 0,1 -1,0 0,-1z M12,0l1,0 0,1 -1,0 0,-1z M13,0l1,0 0,1 -1,0 0,-1z M14,0l1,0 0,1 -1,0 0,-1z M16,0l1,0 0,1 -1,0 0,-1z M17,0l1,0 0,1 -1,0 0,-1z M19,0l1,0 0,1 -1,0 0,-1z M20,0l1,0 0,1 -1,0 0,-1z M23,0l1,0 0,1 -1,0 0,-1z M28,0l1,0 0,1 -1,0 0,-1z M31,0l1,0 0,1 -1,0 0,-1z M32,0l1,0 0,1 -1,0 0,-1z M33,0l1,0 0,1 -1,0 0,-1z M35,0l1,0 0,1 -1,0 0,-1z M37,0l1,0 0,1 -1,0 0,-1z M38,0l1,0 0,1 -1,0 0,-1z M39,0l1,0 0,1 -1,0 0,-1z M41,0l1,0 0,1 -1,0 0,-1z M42,0l1,0 0,1 -1,0 0,-1z M46,0l1,0 0,1 -1,0 0,-1z M47,0l1,0 0,1 -1,0 0,-1z M48,0l1,0 0,1 -1,0 0,-1z M49,0l1,0 0,1 -1,0 0,-1z M50,0l1,0 0,1 -1,0 0,-1z M51,0l1,0 0,1 -1,0 0,-1z M52,0l1,0 0,1 -1,0 0,-1z M0,1l1,0 0,1 -1,0 0,-1z M6,1l1,0 0,1 -1,0 0,-1z M13,1l1,0 0,1 -1,0 0,-1z M15,1l1,0 0,1 -1,0 0,-1z M25,1l1,0 0,1 -1,0 0,-1z M28,1l1,0 0,1 -1,0 0,-1z M30,1l1,0 0,1 -1,0 0,-1z M32,1l1,0 0,1 -1,0 0,-1z M33,1l1,0 0,1 -1,0 0,-1z M36,1l1,0 0,1 -1,0 0,-1z M37,1l1,0 0,1 -1,0 0,-1z M38,1l1,0 0,1 -1,0 0,-1z M39,1l1,0 0,1 -1,0 0,-1z M42,1l1,0 0,1 -1,0 0,-1z M43,1l1,0 0,1 -1,0 0,-1z M46,1l1,0 0,1 -1,0 0,-1z M52,1l1,0 0,1 -1,0 0,-1z M0,2l1,0 0,1 -1,0 0,-1z M2,2l1,0 0,1 -1,0 0,-1z M3,2l1,0 0,1 -1,0 0,-1z M4,2l1,0 0,1 -1,0 0,-1z M6,2l1,0 0,1 -1,0 0,-1z M9,2l1,0 0,1 -1,0 0,-1z M11,2l1,0 0,1 -1,0 0,-1z M12,2l1,0 0,1 -1,0 0,-1z M14,2l1,0 0,1 -1,0 0,-1z M17,2l1,0 0,1 -1,0 0,-1z M18,2l1,0 0,1 -1,0 0,-1z M19,2l1,0 0,1 -1,0 0,-1z M24,2l1,0 0,1 -1,0 0,-1z M25,2l1,0 0,1 -1,0 0,-1z M26,2l1,0 0,1 -1,0 0,-1z M27,2l1,0 0,1 -1,0 0,-1z M28,2l1,0 0,1 -1,0 0,-1z M34,2l1,0 0,1 -1,0 0,-1z M35,2l1,0 0,1 -1,0 0,-1z M39,2l1,0 0,1 -1,0 0,-1z M40,2l1,0 0,1 -1,0 0,-1z M43,2l1,0 0,1 -1,0 0,-1z M46,2l1,0 0,1 -1,0 0,-1z M48,2l1,0 0,1 -1,0 0,-1z M49,2l1,0 0,1 -1,0 0,-1z M50,2l1,0 0,1 -1,0 0,-1z M52,2l1,0 0,1 -1,0 0,-1z M0,3l1,0 0,1 -1,0 0,-1z M2,3l1,0 0,1 -1,0 0,-1z M3,3l1,0 0,1 -1,0 0,-1z M4,3l1,0 0,1 -1,0 0,-1z M6,3l1,0 0,1 -1,0 0,-1z M8,3l1,0 0,1 -1,0 0,-1z M11,3l1,0 0,1 -1,0 0,-1z M16,3l1,0 0,1 -1,0 0,-1z M18,3l1,0 0,1 -1,0 0,-1z M20,3l1,0 0,1 -1,0 0,-1z M22,3l1,0 0,1 -1,0 0,-1z M24,3l1,0 0,1 -1,0 0,-1z M27,3l1,0 0,1 -1,0 0,-1z M28,3l1,0 0,1 -1,0 0,-1z M29,3l1,0 0,1 -1,0 0,-1z M30,3l1,0 0,1 -1,0 0,-1z M36,3l1,0 0,1 -1,0 0,-1z M39,3l1,0 0,1 -1,0 0,-1z M42,3l1,0 0,1 -1,0 0,-1z M44,3l1,0 0,1 -1,0 0,-1z M46,3l1,0 0,1 -1,0 0,-1z M48,3l1,0 0,1 -1,0 0,-1z M49,3l1,0 0,1 -1,0 0,-1z M50,3l1,0 0,1 -1,0 0,-1z M52,3l1,0 0,1 -1,0 0,-1z M0,4l1,0 0,1 -1,0 0,-1z M2,4l1,0 0,1 -1,0 0,-1z M3,4l1,0 0,1 -1,0 0,-1z M4,4l1,0 0,1 -1,0 0,-1z M6,4l1,0 0,1 -1,0 0,-1z M8,4l1,0 0,1 -1,0 0,-1z M10,4l1,0 0,1 -1,0 0,-1z M11,4l1,0 0,1 -1,0 0,-1z M13,4l1,0 0,1 -1,0 0,-1z M19,4l1,0 0,1 -1,0 0,-1z M21,4l1,0 0,1 -1,0 0,-1z M23,4l1,0 0,1 -1,0 0,-1z M24,4l1,0 0,1 -1,0 0,-1z M25,4l1,0 0,1 -1,0 0,-1z M26,4l1,0 0,1 -1,0 0,-1z M27,4l1,0 0,1 -1,0 0,-1z M28,4l1,0 0,1 -1,0 0,-1z M29,4l1,0 0,1 -1,0 0,-1z M30,4l1,0 0,1 -1,0 0,-1z M33,4l1,0 0,1 -1,0 0,-1z M42,4l1,0 0,1 -1,0 0,-1z M46,4l1,0 0,1 -1,0 0,-1z M48,4l1,0 0,1 -1,0 0,-1z M49,4l1,0 0,1 -1,0 0,-1z M50,4l1,0 0,1 -1,0 0,-1z M52,4l1,0 0,1 -1,0 0,-1z M0,5l1,0 0,1 -1,0 0,-1z M6,5l1,0 0,1 -1,0 0,-1z M8,5l1,0 0,1 -1,0 0,-1z M9,5l1,0 0,1 -1,0 0,-1z M13,5l1,0 0,1 -1,0 0,-1z M14,5l1,0 0,1 -1,0 0,-1z M15,5l1,0 0,1 -1,0 0,-1z M17,5l1,0 0,1 -1,0 0,-1z M21,5l1,0 0,1 -1,0 0,-1z M23,5l1,0 0,1 -1,0 0,-1z M24,5l1,0 0,1 -1,0 0,-1z M28,5l1,0 0,1 -1,0 0,-1z M29,5l1,0 0,1 -1,0 0,-1z M30,5l1,0 0,1 -1,0 0,-1z M31,5l1,0 0,1 -1,0 0,-1z M32,5l1,0 0,1 -1,0 0,-1z M35,5l1,0 0,1 -1,0 0,-1z M38,5l1,0 0,1 -1,0 0,-1z M39,5l1,0 0,1 -1,0 0,-1z M42,5l1,0 0,1 -1,0 0,-1z M46,5l1,0 0,1 -1,0 0,-1z M52,5l1,0 0,1 -1,0 0,-1z M0,6l1,0 0,1 -1,0 0,-1z M1,6l1,0 0,1 -1,0 0,-1z M2,6l1,0 0,1 -1,0 0,-1z M3,6l1,0 0,1 -1,0 0,-1z M4,6l1,0 0,1 -1,0 0,-1z M5,6l1,0 0,1 -1,0 0,-1z M6,6l1,0 0,1 -1,0 0,-1z M8,6l1,0 0,1 -1,0 0,-1z M10,6l1,0 0,1 -1,0 0,-1z M12,6l1,0 0,1 -1,0 0,-1z M14,6l1,0 0,1 -1,0 0,-1z M16,6l1,0 0,1 -1,0 0,-1z M18,6l1,0 0,1 -1,0 0,-1z M20,6l1,0 0,1 -1,0 0,-1z M22,6l1,0 0,1 -1,0 0,-1z M24,6l1,0 0,1 -1,0 0,-1z M26,6l1,0 0,1 -1,0 0,-1z M28,6l1,0 0,1 -1,0 0,-1z M30,6l1,0 0,1 -1,0 0,-1z M32,6l1,0 0,1 -1,0 0,-1z M34,6l1,0 0,1 -1,0 0,-1z M36,6l1,0 0,1 -1,0 0,-1z M38,6l1,0 0,1 -1,0 0,-1z M40,6l1,0 0,1 -1,0 0,-1z M42,6l1,0 0,1 -1,0 0,-1z M44,6l1,0 0,1 -1,0 0,-1z M46,6l1,0 0,1 -1,0 0,-1z M47,6l1,0 0,1 -1,0 0,-1z M48,6l1,0 0,1 -1,0 0,-1z M49,6l1,0 0,1 -1,0 0,-1z M50,6l1,0 0,1 -1,0 0,-1z M51,6l1,0 0,1 -1,0 0,-1z M52,6l1,0 0,1 -1,0 0,-1z M8,7l1,0 0,1 -1,0 0,-1z M9,7l1,0 0,1 -1,0 0,-1z M10,7l1,0 0,1 -1,0 0,-1z M11,7l1,0 0,1 -1,0 0,-1z M18,7l1,0 0,1 -1,0 0,-1z M21,7l1,0 0,1 -1,0 0,-1z M23,7l1,0 0,1 -1,0 0,-1z M24,7l1,0 0,1 -1,0 0,-1z M28,7l1,0 0,1 -1,0 0,-1z M29,7l1,0 0,1 -1,0 0,-1z M31,7l1,0 0,1 -1,0 0,-1z M34,7l1,0 0,1 -1,0 0,-1z M35,7l1,0 0,1 -1,0 0,-1z M36,7l1,0 0,1 -1,0 0,-1z M37,7l1,0 0,1 -1,0 0,-1z M41,7l1,0 0,1 -1,0 0,-1z M43,7l1,0 0,1 -1,0 0,-1z M0,8l1,0 0,1 -1,0 0,-1z M4,8l1,0 0,1 -1,0 0,-1z M6,8l1,0 0,1 -1,0 0,-1z M7,8l1,0 0,1 -1,0 0,-1z M8,8l1,0 0,1 -1,0 0,-1z M11,8l1,0 0,1 -1,0 0,-1z M12,8l1,0 0,1 -1,0 0,-1z M13,8l1,0 0,1 -1,0 0,-1z M16,8l1,0 0,1 -1,0 0,-1z M20,8l1,0 0,1 -1,0 0,-1z M24,8l1,0 0,1 -1,0 0,-1z M25,8l1,0 0,1 -1,0 0,-1z M26,8l1,0 0,1 -1,0 0,-1z M27,8l1,0 0,1 -1,0 0,-1z M28,8l1,0 0,1 -1,0 0,-1z M30,8l1,0 0,1 -1,0 0,-1z M31,8l1,0 0,1 -1,0 0,-1z M32,8l1,0 0,1 -1,0 0,-1z M33,8l1,0 0,1 -1,0 0,-1z M34,8l1,0 0,1 -1,0 0,-1z M37,8l1,0 0,1 -1,0 0,-1z M39,8l1,0 0,1 -1,0 0,-1z M41,8l1,0 0,1 -1,0 0,-1z M44,8l1,0 0,1 -1,0 0,-1z M45,8l1,0 0,1 -1,0 0,-1z M46,8l1,0 0,1 -1,0 0,-1z M47,8l1,0 0,1 -1,0 0,-1z M48,8l1,0 0,1 -1,0 0,-1z M49,8l1,0 0,1 -1,0 0,-1z M52,8l1,0 0,1 -1,0 0,-1z M1,9l1,0 0,1 -1,0 0,-1z M2,9l1,0 0,1 -1,0 0,-1z M3,9l1,0 0,1 -1,0 0,-1z M5,9l1,0 0,1 -1,0 0,-1z M7,9l1,0 0,1 -1,0 0,-1z M9,9l1,0 0,1 -1,0 0,-1z M10,9l1,0 0,1 -1,0 0,-1z M12,9l1,0 0,1 -1,0 0,-1z M14,9l1,0 0,1 -1,0 0,-1z M15,9l1,0 0,1 -1,0 0,-1z M16,9l1,0 0,1 -1,0 0,-1z M17,9l1,0 0,1 -1,0 0,-1z M18,9l1,0 0,1 -1,0 0,-1z M21,9l1,0 0,1 -1,0 0,-1z M23,9l1,0 0,1 -1,0 0,-1z M24,9l1,0 0,1 -1,0 0,-1z M25,9l1,0 0,1 -1,0 0,-1z M26,9l1,0 0,1 -1,0 0,-1z M27,9l1,0 0,1 -1,0 0,-1z M28,9l1,0 0,1 -1,0 0,-1z M32,9l1,0 0,1 -1,0 0,-1z M36,9l1,0 0,1 -1,0 0,-1z M39,9l1,0 0,1 -1,0 0,-1z M42,9l1,0 0,1 -1,0 0,-1z M45,9l1,0 0,1 -1,0 0,-1z M46,9l1,0 0,1 -1,0 0,-1z M48,9l1,0 0,1 -1,0 0,-1z M49,9l1,0 0,1 -1,0 0,-1z M50,9l1,0 0,1 -1,0 0,-1z M2,10l1,0 0,1 -1,0 0,-1z M3,10l1,0 0,1 -1,0 0,-1z M6,10l1,0 0,1 -1,0 0,-1z M9,10l1,0 0,1 -1,0 0,-1z M10,10l1,0 0,1 -1,0 0,-1z M12,10l1,0 0,1 -1,0 0,-1z M13,10l1,0 0,1 -1,0 0,-1z M15,10l1,0 0,1 -1,0 0,-1z M17,10l1,0 0,1 -1,0 0,-1z M19,10l1,0 0,1 -1,0 0,-1z M20,10l1,0 0,1 -1,0 0,-1z M21,10l1,0 0,1 -1,0 0,-1z M22,10l1,0 0,1 -1,0 0,-1z M25,10l1,0 0,1 -1,0 0,-1z M26,10l1,0 0,1 -1,0 0,-1z M27,10l1,0 0,1 -1,0 0,-1z M28,10l1,0 0,1 -1,0 0,-1z M29,10l1,0 0,1 -1,0 0,-1z M30,10l1,0 0,1 -1,0 0,-1z M35,10l1,0 0,1 -1,0 0,-1z M38,10l1,0 0,1 -1,0 0,-1z M40,10l1,0 0,1 -1,0 0,-1z M41,10l1,0 0,1 -1,0 0,-1z M46,10l1,0 0,1 -1,0 0,-1z M47,10l1,0 0,1 -1,0 0,-1z M51,10l1,0 0,1 -1,0 0,-1z M52,10l1,0 0,1 -1,0 0,-1z M0,11l1,0 0,1 -1,0 0,-1z M1,11l1,0 0,1 -1,0 0,-1z M3,11l1,0 0,1 -1,0 0,-1z M4,11l1,0 0,1 -1,0 0,-1z M5,11l1,0 0,1 -1,0 0,-1z M7,11l1,0 0,1 -1,0 0,-1z M10,11l1,0 0,1 -1,0 0,-1z M12,11l1,0 0,1 -1,0 0,-1z M13,11l1,0 0,1 -1,0 0,-1z M14,11l1,0 0,1 -1,0 0,-1z M17,11l1,0 0,1 -1,0 0,-1z M18,11l1,0 0,1 -1,0 0,-1z M20,11l1,0 0,1 -1,0 0,-1z M21,11l1,0 0,1 -1,0 0,-1z M22,11l1,0 0,1 -1,0 0,-1z M24,11l1,0 0,1 -1,0 0,-1z M25,11l1,0 0,1 -1,0 0,-1z M27,11l1,0 0,1 -1,0 0,-1z M28,11l1,0 0,1 -1,0 0,-1z M30,11l1,0 0,1 -1,0 0,-1z M31,11l1,0 0,1 -1,0 0,-1z M33,11l1,0 0,1 -1,0 0,-1z M34,11l1,0 0,1 -1,0 0,-1z M35,11l1,0 0,1 -1,0 0,-1z M37,11l1,0 0,1 -1,0 0,-1z M40,11l1,0 0,1 -1,0 0,-1z M45,11l1,0 0,1 -1,0 0,-1z M46,11l1,0 0,1 -1,0 0,-1z M47,11l1,0 0,1 -1,0 0,-1z M48,11l1,0 0,1 -1,0 0,-1z M49,11l1,0 0,1 -1,0 0,-1z M50,11l1,0 0,1 -1,0 0,-1z M51,11l1,0 0,1 -1,0 0,-1z M0,12l1,0 0,1 -1,0 0,-1z M3,12l1,0 0,1 -1,0 0,-1z M6,12l1,0 0,1 -1,0 0,-1z M7,12l1,0 0,1 -1,0 0,-1z M8,12l1,0 0,1 -1,0 0,-1z M9,12l1,0 0,1 -1,0 0,-1z M10,12l1,0 0,1 -1,0 0,-1z M11,12l1,0 0,1 -1,0 0,-1z M12,12l1,0 0,1 -1,0 0,-1z M13,12l1,0 0,1 -1,0 0,-1z M16,12l1,0 0,1 -1,0 0,-1z M17,12l1,0 0,1 -1,0 0,-1z M22,12l1,0 0,1 -1,0 0,-1z M24,12l1,0 0,1 -1,0 0,-1z M27,12l1,0 0,1 -1,0 0,-1z M35,12l1,0 0,1 -1,0 0,-1z M36,12l1,0 0,1 -1,0 0,-1z M37,12l1,0 0,1 -1,0 0,-1z M48,12l1,0 0,1 -1,0 0,-1z M50,12l1,0 0,1 -1,0 0,-1z M52,12l1,0 0,1 -1,0 0,-1z M1,13l1,0 0,1 -1,0 0,-1z M2,13l1,0 0,1 -1,0 0,-1z M5,13l1,0 0,1 -1,0 0,-1z M7,13l1,0 0,1 -1,0 0,-1z M8,13l1,0 0,1 -1,0 0,-1z M9,13l1,0 0,1 -1,0 0,-1z M10,13l1,0 0,1 -1,0 0,-1z M14,13l1,0 0,1 -1,0 0,-1z M16,13l1,0 0,1 -1,0 0,-1z M18,13l1,0 0,1 -1,0 0,-1z M19,13l1,0 0,1 -1,0 0,-1z M22,13l1,0 0,1 -1,0 0,-1z M24,13l1,0 0,1 -1,0 0,-1z M26,13l1,0 0,1 -1,0 0,-1z M27,13l1,0 0,1 -1,0 0,-1z M29,13l1,0 0,1 -1,0 0,-1z M31,13l1,0 0,1 -1,0 0,-1z M32,13l1,0 0,1 -1,0 0,-1z M33,13l1,0 0,1 -1,0 0,-1z M34,13l1,0 0,1 -1,0 0,-1z M35,13l1,0 0,1 -1,0 0,-1z M38,13l1,0 0,1 -1,0 0,-1z M40,13l1,0 0,1 -1,0 0,-1z M43,13l1,0 0,1 -1,0 0,-1z M44,13l1,0 0,1 -1,0 0,-1z M46,13l1,0 0,1 -1,0 0,-1z M47,13l1,0 0,1 -1,0 0,-1z M49,13l1,0 0,1 -1,0 0,-1z M50,13l1,0 0,1 -1,0 0,-1z M52,13l1,0 0,1 -1,0 0,-1z M0,14l1,0 0,1 -1,0 0,-1z M6,14l1,0 0,1 -1,0 0,-1z M7,14l1,0 0,1 -1,0 0,-1z M10,14l1,0 0,1 -1,0 0,-1z M11,14l1,0 0,1 -1,0 0,-1z M13,14l1,0 0,1 -1,0 0,-1z M14,14l1,0 0,1 -1,0 0,-1z M20,14l1,0 0,1 -1,0 0,-1z M22,14l1,0 0,1 -1,0 0,-1z M23,14l1,0 0,1 -1,0 0,-1z M24,14l1,0 0,1 -1,0 0,-1z M26,14l1,0 0,1 -1,0 0,-1z M28,14l1,0 0,1 -1,0 0,-1z M29,14l1,0 0,1 -1,0 0,-1z M34,14l1,0 0,1 -1,0 0,-1z M37,14l1,0 0,1 -1,0 0,-1z M40,14l1,0 0,1 -1,0 0,-1z M43,14l1,0 0,1 -1,0 0,-1z M44,14l1,0 0,1 -1,0 0,-1z M45,14l1,0 0,1 -1,0 0,-1z M51,14l1,0 0,1 -1,0 0,-1z M0,15l1,0 0,1 -1,0 0,-1z M7,15l1,0 0,1 -1,0 0,-1z M8,15l1,0 0,1 -1,0 0,-1z M12,15l1,0 0,1 -1,0 0,-1z M13,15l1,0 0,1 -1,0 0,-1z M14,15l1,0 0,1 -1,0 0,-1z M20,15l1,0 0,1 -1,0 0,-1z M21,15l1,0 0,1 -1,0 0,-1z M22,15l1,0 0,1 -1,0 0,-1z M23,15l1,0 0,1 -1,0 0,-1z M25,15l1,0 0,1 -1,0 0,-1z M26,15l1,0 0,1 -1,0 0,-1z M27,15l1,0 0,1 -1,0 0,-1z M29,15l1,0 0,1 -1,0 0,-1z M31,15l1,0 0,1 -1,0 0,-1z M32,15l1,0 0,1 -1,0 0,-1z M33,15l1,0 0,1 -1,0 0,-1z M34,15l1,0 0,1 -1,0 0,-1z M36,15l1,0 0,1 -1,0 0,-1z M37,15l1,0 0,1 -1,0 0,-1z M40,15l1,0 0,1 -1,0 0,-1z M41,15l1,0 0,1 -1,0 0,-1z M45,15l1,0 0,1 -1,0 0,-1z M46,15l1,0 0,1 -1,0 0,-1z M49,15l1,0 0,1 -1,0 0,-1z M50,15l1,0 0,1 -1,0 0,-1z M51,15l1,0 0,1 -1,0 0,-1z M52,15l1,0 0,1 -1,0 0,-1z M5,16l1,0 0,1 -1,0 0,-1z M6,16l1,0 0,1 -1,0 0,-1z M8,16l1,0 0,1 -1,0 0,-1z M10,16l1,0 0,1 -1,0 0,-1z M11,16l1,0 0,1 -1,0 0,-1z M14,16l1,0 0,1 -1,0 0,-1z M17,16l1,0 0,1 -1,0 0,-1z M19,16l1,0 0,1 -1,0 0,-1z M20,16l1,0 0,1 -1,0 0,-1z M21,16l1,0 0,1 -1,0 0,-1z M22,16l1,0 0,1 -1,0 0,-1z M23,16l1,0 0,1 -1,0 0,-1z M25,16l1,0 0,1 -1,0 0,-1z M27,16l1,0 0,1 -1,0 0,-1z M29,16l1,0 0,1 -1,0 0,-1z M31,16l1,0 0,1 -1,0 0,-1z M32,16l1,0 0,1 -1,0 0,-1z M33,16l1,0 0,1 -1,0 0,-1z M36,16l1,0 0,1 -1,0 0,-1z M37,16l1,0 0,1 -1,0 0,-1z M38,16l1,0 0,1 -1,0 0,-1z M41,16l1,0 0,1 -1,0 0,-1z M43,16l1,0 0,1 -1,0 0,-1z M47,16l1,0 0,1 -1,0 0,-1z M50,16l1,0 0,1 -1,0 0,-1z M0,17l1,0 0,1 -1,0 0,-1z M2,17l1,0 0,1 -1,0 0,-1z M8,17l1,0 0,1 -1,0 0,-1z M10,17l1,0 0,1 -1,0 0,-1z M11,17l1,0 0,1 -1,0 0,-1z M12,17l1,0 0,1 -1,0 0,-1z M14,17l1,0 0,1 -1,0 0,-1z M15,17l1,0 0,1 -1,0 0,-1z M17,17l1,0 0,1 -1,0 0,-1z M19,17l1,0 0,1 -1,0 0,-1z M20,17l1,0 0,1 -1,0 0,-1z M22,17l1,0 0,1 -1,0 0,-1z M23,17l1,0 0,1 -1,0 0,-1z M24,17l1,0 0,1 -1,0 0,-1z M26,17l1,0 0,1 -1,0 0,-1z M30,17l1,0 0,1 -1,0 0,-1z M35,17l1,0 0,1 -1,0 0,-1z M38,17l1,0 0,1 -1,0 0,-1z M39,17l1,0 0,1 -1,0 0,-1z M40,17l1,0 0,1 -1,0 0,-1z M41,17l1,0 0,1 -1,0 0,-1z M42,17l1,0 0,1 -1,0 0,-1z M43,17l1,0 0,1 -1,0 0,-1z M44,17l1,0 0,1 -1,0 0,-1z M45,17l1,0 0,1 -1,0 0,-1z M46,17l1,0 0,1 -1,0 0,-1z M48,17l1,0 0,1 -1,0 0,-1z M49,17l1,0 0,1 -1,0 0,-1z M50,17l1,0 0,1 -1,0 0,-1z M51,17l1,0 0,1 -1,0 0,-1z M1,18l1,0 0,1 -1,0 0,-1z M2,18l1,0 0,1 -1,0 0,-1z M4,18l1,0 0,1 -1,0 0,-1z M6,18l1,0 0,1 -1,0 0,-1z M7,18l1,0 0,1 -1,0 0,-1z M9,18l1,0 0,1 -1,0 0,-1z M14,18l1,0 0,1 -1,0 0,-1z M16,18l1,0 0,1 -1,0 0,-1z M18,18l1,0 0,1 -1,0 0,-1z M20,18l1,0 0,1 -1,0 0,-1z M21,18l1,0 0,1 -1,0 0,-1z M22,18l1,0 0,1 -1,0 0,-1z M24,18l1,0 0,1 -1,0 0,-1z M27,18l1,0 0,1 -1,0 0,-1z M29,18l1,0 0,1 -1,0 0,-1z M31,18l1,0 0,1 -1,0 0,-1z M34,18l1,0 0,1 -1,0 0,-1z M38,18l1,0 0,1 -1,0 0,-1z M39,18l1,0 0,1 -1,0 0,-1z M40,18l1,0 0,1 -1,0 0,-1z M41,18l1,0 0,1 -1,0 0,-1z M43,18l1,0 0,1 -1,0 0,-1z M44,18l1,0 0,1 -1,0 0,-1z M46,18l1,0 0,1 -1,0 0,-1z M47,18l1,0 0,1 -1,0 0,-1z M1,19l1,0 0,1 -1,0 0,-1z M2,19l1,0 0,1 -1,0 0,-1z M3,19l1,0 0,1 -1,0 0,-1z M4,19l1,0 0,1 -1,0 0,-1z M5,19l1,0 0,1 -1,0 0,-1z M7,19l1,0 0,1 -1,0 0,-1z M9,19l1,0 0,1 -1,0 0,-1z M10,19l1,0 0,1 -1,0 0,-1z M11,19l1,0 0,1 -1,0 0,-1z M13,19l1,0 0,1 -1,0 0,-1z M14,19l1,0 0,1 -1,0 0,-1z M16,19l1,0 0,1 -1,0 0,-1z M22,19l1,0 0,1 -1,0 0,-1z M26,19l1,0 0,1 -1,0 0,-1z M30,19l1,0 0,1 -1,0 0,-1z M32,19l1,0 0,1 -1,0 0,-1z M33,19l1,0 0,1 -1,0 0,-1z M34,19l1,0 0,1 -1,0 0,-1z M35,19l1,0 0,1 -1,0 0,-1z M36,19l1,0 0,1 -1,0 0,-1z M37,19l1,0 0,1 -1,0 0,-1z M40,19l1,0 0,1 -1,0 0,-1z M41,19l1,0 0,1 -1,0 0,-1z M43,19l1,0 0,1 -1,0 0,-1z M45,19l1,0 0,1 -1,0 0,-1z M46,19l1,0 0,1 -1,0 0,-1z M50,19l1,0 0,1 -1,0 0,-1z M51,19l1,0 0,1 -1,0 0,-1z M52,19l1,0 0,1 -1,0 0,-1z M1,20l1,0 0,1 -1,0 0,-1z M3,20l1,0 0,1 -1,0 0,-1z M5,20l1,0 0,1 -1,0 0,-1z M6,20l1,0 0,1 -1,0 0,-1z M7,20l1,0 0,1 -1,0 0,-1z M9,20l1,0 0,1 -1,0 0,-1z M11,20l1,0 0,1 -1,0 0,-1z M12,20l1,0 0,1 -1,0 0,-1z M14,20l1,0 0,1 -1,0 0,-1z M15,20l1,0 0,1 -1,0 0,-1z M17,20l1,0 0,1 -1,0 0,-1z M20,20l1,0 0,1 -1,0 0,-1z M23,20l1,0 0,1 -1,0 0,-1z M25,20l1,0 0,1 -1,0 0,-1z M26,20l1,0 0,1 -1,0 0,-1z M30,20l1,0 0,1 -1,0 0,-1z M31,20l1,0 0,1 -1,0 0,-1z M33,20l1,0 0,1 -1,0 0,-1z M34,20l1,0 0,1 -1,0 0,-1z M35,20l1,0 0,1 -1,0 0,-1z M36,20l1,0 0,1 -1,0 0,-1z M37,20l1,0 0,1 -1,0 0,-1z M38,20l1,0 0,1 -1,0 0,-1z M39,20l1,0 0,1 -1,0 0,-1z M42,20l1,0 0,1 -1,0 0,-1z M43,20l1,0 0,1 -1,0 0,-1z M48,20l1,0 0,1 -1,0 0,-1z M49,20l1,0 0,1 -1,0 0,-1z M2,21l1,0 0,1 -1,0 0,-1z M3,21l1,0 0,1 -1,0 0,-1z M4,21l1,0 0,1 -1,0 0,-1z M5,21l1,0 0,1 -1,0 0,-1z M7,21l1,0 0,1 -1,0 0,-1z M8,21l1,0 0,1 -1,0 0,-1z M9,21l1,0 0,1 -1,0 0,-1z M10,21l1,0 0,1 -1,0 0,-1z M11,21l1,0 0,1 -1,0 0,-1z M12,21l1,0 0,1 -1,0 0,-1z M15,21l1,0 0,1 -1,0 0,-1z M19,21l1,0 0,1 -1,0 0,-1z M21,21l1,0 0,1 -1,0 0,-1z M24,21l1,0 0,1 -1,0 0,-1z M25,21l1,0 0,1 -1,0 0,-1z M26,21l1,0 0,1 -1,0 0,-1z M27,21l1,0 0,1 -1,0 0,-1z M30,21l1,0 0,1 -1,0 0,-1z M31,21l1,0 0,1 -1,0 0,-1z M32,21l1,0 0,1 -1,0 0,-1z M35,21l1,0 0,1 -1,0 0,-1z M38,21l1,0 0,1 -1,0 0,-1z M43,21l1,0 0,1 -1,0 0,-1z M44,21l1,0 0,1 -1,0 0,-1z M46,21l1,0 0,1 -1,0 0,-1z M47,21l1,0 0,1 -1,0 0,-1z M50,21l1,0 0,1 -1,0 0,-1z M51,21l1,0 0,1 -1,0 0,-1z M0,22l1,0 0,1 -1,0 0,-1z M1,22l1,0 0,1 -1,0 0,-1z M2,22l1,0 0,1 -1,0 0,-1z M3,22l1,0 0,1 -1,0 0,-1z M5,22l1,0 0,1 -1,0 0,-1z M6,22l1,0 0,1 -1,0 0,-1z M7,22l1,0 0,1 -1,0 0,-1z M8,22l1,0 0,1 -1,0 0,-1z M9,22l1,0 0,1 -1,0 0,-1z M11,22l1,0 0,1 -1,0 0,-1z M12,22l1,0 0,1 -1,0 0,-1z M13,22l1,0 0,1 -1,0 0,-1z M14,22l1,0 0,1 -1,0 0,-1z M16,22l1,0 0,1 -1,0 0,-1z M17,22l1,0 0,1 -1,0 0,-1z M19,22l1,0 0,1 -1,0 0,-1z M21,22l1,0 0,1 -1,0 0,-1z M22,22l1,0 0,1 -1,0 0,-1z M27,22l1,0 0,1 -1,0 0,-1z M28,22l1,0 0,1 -1,0 0,-1z M30,22l1,0 0,1 -1,0 0,-1z M33,22l1,0 0,1 -1,0 0,-1z M34,22l1,0 0,1 -1,0 0,-1z M35,22l1,0 0,1 -1,0 0,-1z M40,22l1,0 0,1 -1,0 0,-1z M41,22l1,0 0,1 -1,0 0,-1z M42,22l1,0 0,1 -1,0 0,-1z M43,22l1,0 0,1 -1,0 0,-1z M44,22l1,0 0,1 -1,0 0,-1z M45,22l1,0 0,1 -1,0 0,-1z M47,22l1,0 0,1 -1,0 0,-1z M52,22l1,0 0,1 -1,0 0,-1z M0,23l1,0 0,1 -1,0 0,-1z M2,23l1,0 0,1 -1,0 0,-1z M3,23l1,0 0,1 -1,0 0,-1z M4,23l1,0 0,1 -1,0 0,-1z M9,23l1,0 0,1 -1,0 0,-1z M10,23l1,0 0,1 -1,0 0,-1z M11,23l1,0 0,1 -1,0 0,-1z M14,23l1,0 0,1 -1,0 0,-1z M19,23l1,0 0,1 -1,0 0,-1z M20,23l1,0 0,1 -1,0 0,-1z M23,23l1,0 0,1 -1,0 0,-1z M25,23l1,0 0,1 -1,0 0,-1z M26,23l1,0 0,1 -1,0 0,-1z M28,23l1,0 0,1 -1,0 0,-1z M34,23l1,0 0,1 -1,0 0,-1z M35,23l1,0 0,1 -1,0 0,-1z M46,23l1,0 0,1 -1,0 0,-1z M49,23l1,0 0,1 -1,0 0,-1z M51,23l1,0 0,1 -1,0 0,-1z M2,24l1,0 0,1 -1,0 0,-1z M4,24l1,0 0,1 -1,0 0,-1z M5,24l1,0 0,1 -1,0 0,-1z M6,24l1,0 0,1 -1,0 0,-1z M7,24l1,0 0,1 -1,0 0,-1z M8,24l1,0 0,1 -1,0 0,-1z M9,24l1,0 0,1 -1,0 0,-1z M11,24l1,0 0,1 -1,0 0,-1z M12,24l1,0 0,1 -1,0 0,-1z M14,24l1,0 0,1 -1,0 0,-1z M16,24l1,0 0,1 -1,0 0,-1z M18,24l1,0 0,1 -1,0 0,-1z M20,24l1,0 0,1 -1,0 0,-1z M22,24l1,0 0,1 -1,0 0,-1z M23,24l1,0 0,1 -1,0 0,-1z M24,24l1,0 0,1 -1,0 0,-1z M25,24l1,0 0,1 -1,0 0,-1z M26,24l1,0 0,1 -1,0 0,-1z M27,24l1,0 0,1 -1,0 0,-1z M28,24l1,0 0,1 -1,0 0,-1z M31,24l1,0 0,1 -1,0 0,-1z M32,24l1,0 0,1 -1,0 0,-1z M34,24l1,0 0,1 -1,0 0,-1z M36,24l1,0 0,1 -1,0 0,-1z M37,24l1,0 0,1 -1,0 0,-1z M38,24l1,0 0,1 -1,0 0,-1z M41,24l1,0 0,1 -1,0 0,-1z M44,24l1,0 0,1 -1,0 0,-1z M45,24l1,0 0,1 -1,0 0,-1z M46,24l1,0 0,1 -1,0 0,-1z M47,24l1,0 0,1 -1,0 0,-1z M48,24l1,0 0,1 -1,0 0,-1z M49,24l1,0 0,1 -1,0 0,-1z M51,24l1,0 0,1 -1,0 0,-1z M1,25l1,0 0,1 -1,0 0,-1z M3,25l1,0 0,1 -1,0 0,-1z M4,25l1,0 0,1 -1,0 0,-1z M8,25l1,0 0,1 -1,0 0,-1z M9,25l1,0 0,1 -1,0 0,-1z M11,25l1,0 0,1 -1,0 0,-1z M12,25l1,0 0,1 -1,0 0,-1z M14,25l1,0 0,1 -1,0 0,-1z M15,25l1,0 0,1 -1,0 0,-1z M18,25l1,0 0,1 -1,0 0,-1z M19,25l1,0 0,1 -1,0 0,-1z M21,25l1,0 0,1 -1,0 0,-1z M24,25l1,0 0,1 -1,0 0,-1z M28,25l1,0 0,1 -1,0 0,-1z M29,25l1,0 0,1 -1,0 0,-1z M33,25l1,0 0,1 -1,0 0,-1z M36,25l1,0 0,1 -1,0 0,-1z M37,25l1,0 0,1 -1,0 0,-1z M44,25l1,0 0,1 -1,0 0,-1z M48,25l1,0 0,1 -1,0 0,-1z M50,25l1,0 0,1 -1,0 0,-1z M51,25l1,0 0,1 -1,0 0,-1z M0,26l1,0 0,1 -1,0 0,-1z M1,26l1,0 0,1 -1,0 0,-1z M2,26l1,0 0,1 -1,0 0,-1z M3,26l1,0 0,1 -1,0 0,-1z M4,26l1,0 0,1 -1,0 0,-1z M6,26l1,0 0,1 -1,0 0,-1z M8,26l1,0 0,1 -1,0 0,-1z M9,26l1,0 0,1 -1,0 0,-1z M13,26l1,0 0,1 -1,0 0,-1z M14,26l1,0 0,1 -1,0 0,-1z M17,26l1,0 0,1 -1,0 0,-1z M18,26l1,0 0,1 -1,0 0,-1z M22,26l1,0 0,1 -1,0 0,-1z M23,26l1,0 0,1 -1,0 0,-1z M24,26l1,0 0,1 -1,0 0,-1z M26,26l1,0 0,1 -1,0 0,-1z M28,26l1,0 0,1 -1,0 0,-1z M29,26l1,0 0,1 -1,0 0,-1z M30,26l1,0 0,1 -1,0 0,-1z M34,26l1,0 0,1 -1,0 0,-1z M35,26l1,0 0,1 -1,0 0,-1z M38,26l1,0 0,1 -1,0 0,-1z M40,26l1,0 0,1 -1,0 0,-1z M43,26l1,0 0,1 -1,0 0,-1z M44,26l1,0 0,1 -1,0 0,-1z M46,26l1,0 0,1 -1,0 0,-1z M48,26l1,0 0,1 -1,0 0,-1z M49,26l1,0 0,1 -1,0 0,-1z M52,26l1,0 0,1 -1,0 0,-1z M1,27l1,0 0,1 -1,0 0,-1z M2,27l1,0 0,1 -1,0 0,-1z M3,27l1,0 0,1 -1,0 0,-1z M4,27l1,0 0,1 -1,0 0,-1z M8,27l1,0 0,1 -1,0 0,-1z M9,27l1,0 0,1 -1,0 0,-1z M11,27l1,0 0,1 -1,0 0,-1z M12,27l1,0 0,1 -1,0 0,-1z M13,27l1,0 0,1 -1,0 0,-1z M14,27l1,0 0,1 -1,0 0,-1z M15,27l1,0 0,1 -1,0 0,-1z M17,27l1,0 0,1 -1,0 0,-1z M20,27l1,0 0,1 -1,0 0,-1z M23,27l1,0 0,1 -1,0 0,-1z M24,27l1,0 0,1 -1,0 0,-1z M28,27l1,0 0,1 -1,0 0,-1z M29,27l1,0 0,1 -1,0 0,-1z M34,27l1,0 0,1 -1,0 0,-1z M39,27l1,0 0,1 -1,0 0,-1z M41,27l1,0 0,1 -1,0 0,-1z M43,27l1,0 0,1 -1,0 0,-1z M44,27l1,0 0,1 -1,0 0,-1z M48,27l1,0 0,1 -1,0 0,-1z M2,28l1,0 0,1 -1,0 0,-1z M4,28l1,0 0,1 -1,0 0,-1z M5,28l1,0 0,1 -1,0 0,-1z M6,28l1,0 0,1 -1,0 0,-1z M7,28l1,0 0,1 -1,0 0,-1z M8,28l1,0 0,1 -1,0 0,-1z M9,28l1,0 0,1 -1,0 0,-1z M10,28l1,0 0,1 -1,0 0,-1z M13,28l1,0 0,1 -1,0 0,-1z M16,28l1,0 0,1 -1,0 0,-1z M17,28l1,0 0,1 -1,0 0,-1z M24,28l1,0 0,1 -1,0 0,-1z M25,28l1,0 0,1 -1,0 0,-1z M26,28l1,0 0,1 -1,0 0,-1z M27,28l1,0 0,1 -1,0 0,-1z M28,28l1,0 0,1 -1,0 0,-1z M30,28l1,0 0,1 -1,0 0,-1z M34,28l1,0 0,1 -1,0 0,-1z M35,28l1,0 0,1 -1,0 0,-1z M37,28l1,0 0,1 -1,0 0,-1z M40,28l1,0 0,1 -1,0 0,-1z M41,28l1,0 0,1 -1,0 0,-1z M43,28l1,0 0,1 -1,0 0,-1z M44,28l1,0 0,1 -1,0 0,-1z M45,28l1,0 0,1 -1,0 0,-1z M46,28l1,0 0,1 -1,0 0,-1z M47,28l1,0 0,1 -1,0 0,-1z M48,28l1,0 0,1 -1,0 0,-1z M0,29l1,0 0,1 -1,0 0,-1z M2,29l1,0 0,1 -1,0 0,-1z M5,29l1,0 0,1 -1,0 0,-1z M8,29l1,0 0,1 -1,0 0,-1z M9,29l1,0 0,1 -1,0 0,-1z M11,29l1,0 0,1 -1,0 0,-1z M13,29l1,0 0,1 -1,0 0,-1z M14,29l1,0 0,1 -1,0 0,-1z M15,29l1,0 0,1 -1,0 0,-1z M20,29l1,0 0,1 -1,0 0,-1z M21,29l1,0 0,1 -1,0 0,-1z M22,29l1,0 0,1 -1,0 0,-1z M23,29l1,0 0,1 -1,0 0,-1z M26,29l1,0 0,1 -1,0 0,-1z M29,29l1,0 0,1 -1,0 0,-1z M31,29l1,0 0,1 -1,0 0,-1z M34,29l1,0 0,1 -1,0 0,-1z M36,29l1,0 0,1 -1,0 0,-1z M37,29l1,0 0,1 -1,0 0,-1z M38,29l1,0 0,1 -1,0 0,-1z M42,29l1,0 0,1 -1,0 0,-1z M46,29l1,0 0,1 -1,0 0,-1z M47,29l1,0 0,1 -1,0 0,-1z M49,29l1,0 0,1 -1,0 0,-1z M50,29l1,0 0,1 -1,0 0,-1z M2,30l1,0 0,1 -1,0 0,-1z M6,30l1,0 0,1 -1,0 0,-1z M7,30l1,0 0,1 -1,0 0,-1z M8,30l1,0 0,1 -1,0 0,-1z M11,30l1,0 0,1 -1,0 0,-1z M12,30l1,0 0,1 -1,0 0,-1z M14,30l1,0 0,1 -1,0 0,-1z M16,30l1,0 0,1 -1,0 0,-1z M19,30l1,0 0,1 -1,0 0,-1z M20,30l1,0 0,1 -1,0 0,-1z M21,30l1,0 0,1 -1,0 0,-1z M22,30l1,0 0,1 -1,0 0,-1z M28,30l1,0 0,1 -1,0 0,-1z M31,30l1,0 0,1 -1,0 0,-1z M32,30l1,0 0,1 -1,0 0,-1z M33,30l1,0 0,1 -1,0 0,-1z M34,30l1,0 0,1 -1,0 0,-1z M35,30l1,0 0,1 -1,0 0,-1z M39,30l1,0 0,1 -1,0 0,-1z M40,30l1,0 0,1 -1,0 0,-1z M41,30l1,0 0,1 -1,0 0,-1z M47,30l1,0 0,1 -1,0 0,-1z M52,30l1,0 0,1 -1,0 0,-1z M0,31l1,0 0,1 -1,0 0,-1z M2,31l1,0 0,1 -1,0 0,-1z M3,31l1,0 0,1 -1,0 0,-1z M4,31l1,0 0,1 -1,0 0,-1z M5,31l1,0 0,1 -1,0 0,-1z M8,31l1,0 0,1 -1,0 0,-1z M10,31l1,0 0,1 -1,0 0,-1z M12,31l1,0 0,1 -1,0 0,-1z M14,31l1,0 0,1 -1,0 0,-1z M15,31l1,0 0,1 -1,0 0,-1z M16,31l1,0 0,1 -1,0 0,-1z M19,31l1,0 0,1 -1,0 0,-1z M20,31l1,0 0,1 -1,0 0,-1z M21,31l1,0 0,1 -1,0 0,-1z M22,31l1,0 0,1 -1,0 0,-1z M23,31l1,0 0,1 -1,0 0,-1z M24,31l1,0 0,1 -1,0 0,-1z M25,31l1,0 0,1 -1,0 0,-1z M29,31l1,0 0,1 -1,0 0,-1z M32,31l1,0 0,1 -1,0 0,-1z M33,31l1,0 0,1 -1,0 0,-1z M34,31l1,0 0,1 -1,0 0,-1z M37,31l1,0 0,1 -1,0 0,-1z M40,31l1,0 0,1 -1,0 0,-1z M43,31l1,0 0,1 -1,0 0,-1z M47,31l1,0 0,1 -1,0 0,-1z M50,31l1,0 0,1 -1,0 0,-1z M51,31l1,0 0,1 -1,0 0,-1z M1,32l1,0 0,1 -1,0 0,-1z M2,32l1,0 0,1 -1,0 0,-1z M5,32l1,0 0,1 -1,0 0,-1z M6,32l1,0 0,1 -1,0 0,-1z M7,32l1,0 0,1 -1,0 0,-1z M11,32l1,0 0,1 -1,0 0,-1z M12,32l1,0 0,1 -1,0 0,-1z M15,32l1,0 0,1 -1,0 0,-1z M17,32l1,0 0,1 -1,0 0,-1z M19,32l1,0 0,1 -1,0 0,-1z M21,32l1,0 0,1 -1,0 0,-1z M22,32l1,0 0,1 -1,0 0,-1z M24,32l1,0 0,1 -1,0 0,-1z M25,32l1,0 0,1 -1,0 0,-1z M26,32l1,0 0,1 -1,0 0,-1z M29,32l1,0 0,1 -1,0 0,-1z M30,32l1,0 0,1 -1,0 0,-1z M31,32l1,0 0,1 -1,0 0,-1z M35,32l1,0 0,1 -1,0 0,-1z M36,32l1,0 0,1 -1,0 0,-1z M40,32l1,0 0,1 -1,0 0,-1z M41,32l1,0 0,1 -1,0 0,-1z M44,32l1,0 0,1 -1,0 0,-1z M47,32l1,0 0,1 -1,0 0,-1z M49,32l1,0 0,1 -1,0 0,-1z M52,32l1,0 0,1 -1,0 0,-1z M2,33l1,0 0,1 -1,0 0,-1z M3,33l1,0 0,1 -1,0 0,-1z M4,33l1,0 0,1 -1,0 0,-1z M5,33l1,0 0,1 -1,0 0,-1z M7,33l1,0 0,1 -1,0 0,-1z M8,33l1,0 0,1 -1,0 0,-1z M11,33l1,0 0,1 -1,0 0,-1z M12,33l1,0 0,1 -1,0 0,-1z M17,33l1,0 0,1 -1,0 0,-1z M18,33l1,0 0,1 -1,0 0,-1z M21,33l1,0 0,1 -1,0 0,-1z M23,33l1,0 0,1 -1,0 0,-1z M24,33l1,0 0,1 -1,0 0,-1z M26,33l1,0 0,1 -1,0 0,-1z M30,33l1,0 0,1 -1,0 0,-1z M31,33l1,0 0,1 -1,0 0,-1z M32,33l1,0 0,1 -1,0 0,-1z M34,33l1,0 0,1 -1,0 0,-1z M37,33l1,0 0,1 -1,0 0,-1z M38,33l1,0 0,1 -1,0 0,-1z M40,33l1,0 0,1 -1,0 0,-1z M42,33l1,0 0,1 -1,0 0,-1z M43,33l1,0 0,1 -1,0 0,-1z M44,33l1,0 0,1 -1,0 0,-1z M48,33l1,0 0,1 -1,0 0,-1z M49,33l1,0 0,1 -1,0 0,-1z M50,33l1,0 0,1 -1,0 0,-1z M51,33l1,0 0,1 -1,0 0,-1z M0,34l1,0 0,1 -1,0 0,-1z M1,34l1,0 0,1 -1,0 0,-1z M3,34l1,0 0,1 -1,0 0,-1z M4,34l1,0 0,1 -1,0 0,-1z M6,34l1,0 0,1 -1,0 0,-1z M10,34l1,0 0,1 -1,0 0,-1z M11,34l1,0 0,1 -1,0 0,-1z M13,34l1,0 0,1 -1,0 0,-1z M15,34l1,0 0,1 -1,0 0,-1z M16,34l1,0 0,1 -1,0 0,-1z M19,34l1,0 0,1 -1,0 0,-1z M21,34l1,0 0,1 -1,0 0,-1z M22,34l1,0 0,1 -1,0 0,-1z M27,34l1,0 0,1 -1,0 0,-1z M33,34l1,0 0,1 -1,0 0,-1z M38,34l1,0 0,1 -1,0 0,-1z M40,34l1,0 0,1 -1,0 0,-1z M42,34l1,0 0,1 -1,0 0,-1z M45,34l1,0 0,1 -1,0 0,-1z M47,34l1,0 0,1 -1,0 0,-1z M2,35l1,0 0,1 -1,0 0,-1z M3,35l1,0 0,1 -1,0 0,-1z M10,35l1,0 0,1 -1,0 0,-1z M13,35l1,0 0,1 -1,0 0,-1z M16,35l1,0 0,1 -1,0 0,-1z M17,35l1,0 0,1 -1,0 0,-1z M21,35l1,0 0,1 -1,0 0,-1z M22,35l1,0 0,1 -1,0 0,-1z M23,35l1,0 0,1 -1,0 0,-1z M25,35l1,0 0,1 -1,0 0,-1z M26,35l1,0 0,1 -1,0 0,-1z M27,35l1,0 0,1 -1,0 0,-1z M29,35l1,0 0,1 -1,0 0,-1z M31,35l1,0 0,1 -1,0 0,-1z M39,35l1,0 0,1 -1,0 0,-1z M41,35l1,0 0,1 -1,0 0,-1z M45,35l1,0 0,1 -1,0 0,-1z M50,35l1,0 0,1 -1,0 0,-1z M51,35l1,0 0,1 -1,0 0,-1z M52,35l1,0 0,1 -1,0 0,-1z M0,36l1,0 0,1 -1,0 0,-1z M1,36l1,0 0,1 -1,0 0,-1z M2,36l1,0 0,1 -1,0 0,-1z M3,36l1,0 0,1 -1,0 0,-1z M6,36l1,0 0,1 -1,0 0,-1z M7,36l1,0 0,1 -1,0 0,-1z M8,36l1,0 0,1 -1,0 0,-1z M11,36l1,0 0,1 -1,0 0,-1z M12,36l1,0 0,1 -1,0 0,-1z M14,36l1,0 0,1 -1,0 0,-1z M15,36l1,0 0,1 -1,0 0,-1z M16,36l1,0 0,1 -1,0 0,-1z M18,36l1,0 0,1 -1,0 0,-1z M21,36l1,0 0,1 -1,0 0,-1z M22,36l1,0 0,1 -1,0 0,-1z M24,36l1,0 0,1 -1,0 0,-1z M25,36l1,0 0,1 -1,0 0,-1z M26,36l1,0 0,1 -1,0 0,-1z M29,36l1,0 0,1 -1,0 0,-1z M32,36l1,0 0,1 -1,0 0,-1z M34,36l1,0 0,1 -1,0 0,-1z M35,36l1,0 0,1 -1,0 0,-1z M36,36l1,0 0,1 -1,0 0,-1z M37,36l1,0 0,1 -1,0 0,-1z M38,36l1,0 0,1 -1,0 0,-1z M40,36l1,0 0,1 -1,0 0,-1z M41,36l1,0 0,1 -1,0 0,-1z M45,36l1,0 0,1 -1,0 0,-1z M49,36l1,0 0,1 -1,0 0,-1z M1,37l1,0 0,1 -1,0 0,-1z M3,37l1,0 0,1 -1,0 0,-1z M4,37l1,0 0,1 -1,0 0,-1z M15,37l1,0 0,1 -1,0 0,-1z M17,37l1,0 0,1 -1,0 0,-1z M18,37l1,0 0,1 -1,0 0,-1z M19,37l1,0 0,1 -1,0 0,-1z M20,37l1,0 0,1 -1,0 0,-1z M21,37l1,0 0,1 -1,0 0,-1z M30,37l1,0 0,1 -1,0 0,-1z M33,37l1,0 0,1 -1,0 0,-1z M34,37l1,0 0,1 -1,0 0,-1z M35,37l1,0 0,1 -1,0 0,-1z M42,37l1,0 0,1 -1,0 0,-1z M44,37l1,0 0,1 -1,0 0,-1z M48,37l1,0 0,1 -1,0 0,-1z M49,37l1,0 0,1 -1,0 0,-1z M50,37l1,0 0,1 -1,0 0,-1z M52,37l1,0 0,1 -1,0 0,-1z M0,38l1,0 0,1 -1,0 0,-1z M2,38l1,0 0,1 -1,0 0,-1z M4,38l1,0 0,1 -1,0 0,-1z M5,38l1,0 0,1 -1,0 0,-1z M6,38l1,0 0,1 -1,0 0,-1z M7,38l1,0 0,1 -1,0 0,-1z M9,38l1,0 0,1 -1,0 0,-1z M10,38l1,0 0,1 -1,0 0,-1z M11,38l1,0 0,1 -1,0 0,-1z M12,38l1,0 0,1 -1,0 0,-1z M13,38l1,0 0,1 -1,0 0,-1z M16,38l1,0 0,1 -1,0 0,-1z M17,38l1,0 0,1 -1,0 0,-1z M19,38l1,0 0,1 -1,0 0,-1z M20,38l1,0 0,1 -1,0 0,-1z M23,38l1,0 0,1 -1,0 0,-1z M24,38l1,0 0,1 -1,0 0,-1z M25,38l1,0 0,1 -1,0 0,-1z M27,38l1,0 0,1 -1,0 0,-1z M28,38l1,0 0,1 -1,0 0,-1z M29,38l1,0 0,1 -1,0 0,-1z M31,38l1,0 0,1 -1,0 0,-1z M33,38l1,0 0,1 -1,0 0,-1z M34,38l1,0 0,1 -1,0 0,-1z M37,38l1,0 0,1 -1,0 0,-1z M39,38l1,0 0,1 -1,0 0,-1z M40,38l1,0 0,1 -1,0 0,-1z M41,38l1,0 0,1 -1,0 0,-1z M42,38l1,0 0,1 -1,0 0,-1z M45,38l1,0 0,1 -1,0 0,-1z M46,38l1,0 0,1 -1,0 0,-1z M48,38l1,0 0,1 -1,0 0,-1z M51,38l1,0 0,1 -1,0 0,-1z M1,39l1,0 0,1 -1,0 0,-1z M4,39l1,0 0,1 -1,0 0,-1z M5,39l1,0 0,1 -1,0 0,-1z M7,39l1,0 0,1 -1,0 0,-1z M8,39l1,0 0,1 -1,0 0,-1z M9,39l1,0 0,1 -1,0 0,-1z M10,39l1,0 0,1 -1,0 0,-1z M11,39l1,0 0,1 -1,0 0,-1z M13,39l1,0 0,1 -1,0 0,-1z M15,39l1,0 0,1 -1,0 0,-1z M16,39l1,0 0,1 -1,0 0,-1z M18,39l1,0 0,1 -1,0 0,-1z M21,39l1,0 0,1 -1,0 0,-1z M24,39l1,0 0,1 -1,0 0,-1z M25,39l1,0 0,1 -1,0 0,-1z M26,39l1,0 0,1 -1,0 0,-1z M27,39l1,0 0,1 -1,0 0,-1z M29,39l1,0 0,1 -1,0 0,-1z M30,39l1,0 0,1 -1,0 0,-1z M31,39l1,0 0,1 -1,0 0,-1z M33,39l1,0 0,1 -1,0 0,-1z M34,39l1,0 0,1 -1,0 0,-1z M35,39l1,0 0,1 -1,0 0,-1z M39,39l1,0 0,1 -1,0 0,-1z M41,39l1,0 0,1 -1,0 0,-1z M49,39l1,0 0,1 -1,0 0,-1z M50,39l1,0 0,1 -1,0 0,-1z M51,39l1,0 0,1 -1,0 0,-1z M52,39l1,0 0,1 -1,0 0,-1z M0,40l1,0 0,1 -1,0 0,-1z M1,40l1,0 0,1 -1,0 0,-1z M2,40l1,0 0,1 -1,0 0,-1z M3,40l1,0 0,1 -1,0 0,-1z M5,40l1,0 0,1 -1,0 0,-1z M6,40l1,0 0,1 -1,0 0,-1z M7,40l1,0 0,1 -1,0 0,-1z M9,40l1,0 0,1 -1,0 0,-1z M12,40l1,0 0,1 -1,0 0,-1z M15,40l1,0 0,1 -1,0 0,-1z M17,40l1,0 0,1 -1,0 0,-1z M18,40l1,0 0,1 -1,0 0,-1z M19,40l1,0 0,1 -1,0 0,-1z M20,40l1,0 0,1 -1,0 0,-1z M21,40l1,0 0,1 -1,0 0,-1z M22,40l1,0 0,1 -1,0 0,-1z M24,40l1,0 0,1 -1,0 0,-1z M25,40l1,0 0,1 -1,0 0,-1z M26,40l1,0 0,1 -1,0 0,-1z M28,40l1,0 0,1 -1,0 0,-1z M29,40l1,0 0,1 -1,0 0,-1z M33,40l1,0 0,1 -1,0 0,-1z M34,40l1,0 0,1 -1,0 0,-1z M37,40l1,0 0,1 -1,0 0,-1z M38,40l1,0 0,1 -1,0 0,-1z M40,40l1,0 0,1 -1,0 0,-1z M42,40l1,0 0,1 -1,0 0,-1z M44,40l1,0 0,1 -1,0 0,-1z M50,40l1,0 0,1 -1,0 0,-1z M0,41l1,0 0,1 -1,0 0,-1z M1,41l1,0 0,1 -1,0 0,-1z M13,41l1,0 0,1 -1,0 0,-1z M14,41l1,0 0,1 -1,0 0,-1z M17,41l1,0 0,1 -1,0 0,-1z M18,41l1,0 0,1 -1,0 0,-1z M20,41l1,0 0,1 -1,0 0,-1z M27,41l1,0 0,1 -1,0 0,-1z M29,41l1,0 0,1 -1,0 0,-1z M30,41l1,0 0,1 -1,0 0,-1z M31,41l1,0 0,1 -1,0 0,-1z M32,41l1,0 0,1 -1,0 0,-1z M34,41l1,0 0,1 -1,0 0,-1z M36,41l1,0 0,1 -1,0 0,-1z M41,41l1,0 0,1 -1,0 0,-1z M50,41l1,0 0,1 -1,0 0,-1z M51,41l1,0 0,1 -1,0 0,-1z M52,41l1,0 0,1 -1,0 0,-1z M0,42l1,0 0,1 -1,0 0,-1z M1,42l1,0 0,1 -1,0 0,-1z M3,42l1,0 0,1 -1,0 0,-1z M4,42l1,0 0,1 -1,0 0,-1z M5,42l1,0 0,1 -1,0 0,-1z M6,42l1,0 0,1 -1,0 0,-1z M8,42l1,0 0,1 -1,0 0,-1z M9,42l1,0 0,1 -1,0 0,-1z M10,42l1,0 0,1 -1,0 0,-1z M11,42l1,0 0,1 -1,0 0,-1z M12,42l1,0 0,1 -1,0 0,-1z M13,42l1,0 0,1 -1,0 0,-1z M14,42l1,0 0,1 -1,0 0,-1z M15,42l1,0 0,1 -1,0 0,-1z M16,42l1,0 0,1 -1,0 0,-1z M17,42l1,0 0,1 -1,0 0,-1z M18,42l1,0 0,1 -1,0 0,-1z M19,42l1,0 0,1 -1,0 0,-1z M21,42l1,0 0,1 -1,0 0,-1z M22,42l1,0 0,1 -1,0 0,-1z M23,42l1,0 0,1 -1,0 0,-1z M24,42l1,0 0,1 -1,0 0,-1z M27,42l1,0 0,1 -1,0 0,-1z M28,42l1,0 0,1 -1,0 0,-1z M29,42l1,0 0,1 -1,0 0,-1z M30,42l1,0 0,1 -1,0 0,-1z M34,42l1,0 0,1 -1,0 0,-1z M37,42l1,0 0,1 -1,0 0,-1z M39,42l1,0 0,1 -1,0 0,-1z M40,42l1,0 0,1 -1,0 0,-1z M45,42l1,0 0,1 -1,0 0,-1z M47,42l1,0 0,1 -1,0 0,-1z M50,42l1,0 0,1 -1,0 0,-1z M51,42l1,0 0,1 -1,0 0,-1z M52,42l1,0 0,1 -1,0 0,-1z M1,43l1,0 0,1 -1,0 0,-1z M2,43l1,0 0,1 -1,0 0,-1z M10,43l1,0 0,1 -1,0 0,-1z M12,43l1,0 0,1 -1,0 0,-1z M14,43l1,0 0,1 -1,0 0,-1z M15,43l1,0 0,1 -1,0 0,-1z M17,43l1,0 0,1 -1,0 0,-1z M19,43l1,0 0,1 -1,0 0,-1z M21,43l1,0 0,1 -1,0 0,-1z M22,43l1,0 0,1 -1,0 0,-1z M27,43l1,0 0,1 -1,0 0,-1z M28,43l1,0 0,1 -1,0 0,-1z M29,43l1,0 0,1 -1,0 0,-1z M34,43l1,0 0,1 -1,0 0,-1z M35,43l1,0 0,1 -1,0 0,-1z M36,43l1,0 0,1 -1,0 0,-1z M37,43l1,0 0,1 -1,0 0,-1z M39,43l1,0 0,1 -1,0 0,-1z M41,43l1,0 0,1 -1,0 0,-1z M45,43l1,0 0,1 -1,0 0,-1z M47,43l1,0 0,1 -1,0 0,-1z M49,43l1,0 0,1 -1,0 0,-1z M3,44l1,0 0,1 -1,0 0,-1z M6,44l1,0 0,1 -1,0 0,-1z M9,44l1,0 0,1 -1,0 0,-1z M11,44l1,0 0,1 -1,0 0,-1z M14,44l1,0 0,1 -1,0 0,-1z M15,44l1,0 0,1 -1,0 0,-1z M18,44l1,0 0,1 -1,0 0,-1z M20,44l1,0 0,1 -1,0 0,-1z M22,44l1,0 0,1 -1,0 0,-1z M24,44l1,0 0,1 -1,0 0,-1z M25,44l1,0 0,1 -1,0 0,-1z M26,44l1,0 0,1 -1,0 0,-1z M27,44l1,0 0,1 -1,0 0,-1z M28,44l1,0 0,1 -1,0 0,-1z M30,44l1,0 0,1 -1,0 0,-1z M31,44l1,0 0,1 -1,0 0,-1z M32,44l1,0 0,1 -1,0 0,-1z M33,44l1,0 0,1 -1,0 0,-1z M34,44l1,0 0,1 -1,0 0,-1z M37,44l1,0 0,1 -1,0 0,-1z M38,44l1,0 0,1 -1,0 0,-1z M40,44l1,0 0,1 -1,0 0,-1z M42,44l1,0 0,1 -1,0 0,-1z M43,44l1,0 0,1 -1,0 0,-1z M44,44l1,0 0,1 -1,0 0,-1z M45,44l1,0 0,1 -1,0 0,-1z M46,44l1,0 0,1 -1,0 0,-1z M47,44l1,0 0,1 -1,0 0,-1z M48,44l1,0 0,1 -1,0 0,-1z M50,44l1,0 0,1 -1,0 0,-1z M51,44l1,0 0,1 -1,0 0,-1z M8,45l1,0 0,1 -1,0 0,-1z M10,45l1,0 0,1 -1,0 0,-1z M13,45l1,0 0,1 -1,0 0,-1z M15,45l1,0 0,1 -1,0 0,-1z M16,45l1,0 0,1 -1,0 0,-1z M17,45l1,0 0,1 -1,0 0,-1z M19,45l1,0 0,1 -1,0 0,-1z M20,45l1,0 0,1 -1,0 0,-1z M22,45l1,0 0,1 -1,0 0,-1z M24,45l1,0 0,1 -1,0 0,-1z M28,45l1,0 0,1 -1,0 0,-1z M29,45l1,0 0,1 -1,0 0,-1z M36,45l1,0 0,1 -1,0 0,-1z M37,45l1,0 0,1 -1,0 0,-1z M38,45l1,0 0,1 -1,0 0,-1z M41,45l1,0 0,1 -1,0 0,-1z M44,45l1,0 0,1 -1,0 0,-1z M48,45l1,0 0,1 -1,0 0,-1z M50,45l1,0 0,1 -1,0 0,-1z M52,45l1,0 0,1 -1,0 0,-1z M0,46l1,0 0,1 -1,0 0,-1z M1,46l1,0 0,1 -1,0 0,-1z M2,46l1,0 0,1 -1,0 0,-1z M3,46l1,0 0,1 -1,0 0,-1z M4,46l1,0 0,1 -1,0 0,-1z M5,46l1,0 0,1 -1,0 0,-1z M6,46l1,0 0,1 -1,0 0,-1z M8,46l1,0 0,1 -1,0 0,-1z M10,46l1,0 0,1 -1,0 0,-1z M11,46l1,0 0,1 -1,0 0,-1z M12,46l1,0 0,1 -1,0 0,-1z M13,46l1,0 0,1 -1,0 0,-1z M16,46l1,0 0,1 -1,0 0,-1z M19,46l1,0 0,1 -1,0 0,-1z M20,46l1,0 0,1 -1,0 0,-1z M21,46l1,0 0,1 -1,0 0,-1z M22,46l1,0 0,1 -1,0 0,-1z M23,46l1,0 0,1 -1,0 0,-1z M24,46l1,0 0,1 -1,0 0,-1z M26,46l1,0 0,1 -1,0 0,-1z M28,46l1,0 0,1 -1,0 0,-1z M33,46l1,0 0,1 -1,0 0,-1z M35,46l1,0 0,1 -1,0 0,-1z M37,46l1,0 0,1 -1,0 0,-1z M38,46l1,0 0,1 -1,0 0,-1z M39,46l1,0 0,1 -1,0 0,-1z M40,46l1,0 0,1 -1,0 0,-1z M43,46l1,0 0,1 -1,0 0,-1z M44,46l1,0 0,1 -1,0 0,-1z M46,46l1,0 0,1 -1,0 0,-1z M48,46l1,0 0,1 -1,0 0,-1z M49,46l1,0 0,1 -1,0 0,-1z M51,46l1,0 0,1 -1,0 0,-1z M52,46l1,0 0,1 -1,0 0,-1z M0,47l1,0 0,1 -1,0 0,-1z M6,47l1,0 0,1 -1,0 0,-1z M9,47l1,0 0,1 -1,0 0,-1z M10,47l1,0 0,1 -1,0 0,-1z M13,47l1,0 0,1 -1,0 0,-1z M14,47l1,0 0,1 -1,0 0,-1z M16,47l1,0 0,1 -1,0 0,-1z M18,47l1,0 0,1 -1,0 0,-1z M19,47l1,0 0,1 -1,0 0,-1z M20,47l1,0 0,1 -1,0 0,-1z M22,47l1,0 0,1 -1,0 0,-1z M24,47l1,0 0,1 -1,0 0,-1z M28,47l1,0 0,1 -1,0 0,-1z M29,47l1,0 0,1 -1,0 0,-1z M31,47l1,0 0,1 -1,0 0,-1z M34,47l1,0 0,1 -1,0 0,-1z M35,47l1,0 0,1 -1,0 0,-1z M36,47l1,0 0,1 -1,0 0,-1z M37,47l1,0 0,1 -1,0 0,-1z M40,47l1,0 0,1 -1,0 0,-1z M41,47l1,0 0,1 -1,0 0,-1z M44,47l1,0 0,1 -1,0 0,-1z M48,47l1,0 0,1 -1,0 0,-1z M0,48l1,0 0,1 -1,0 0,-1z M2,48l1,0 0,1 -1,0 0,-1z M3,48l1,0 0,1 -1,0 0,-1z M4,48l1,0 0,1 -1,0 0,-1z M6,48l1,0 0,1 -1,0 0,-1z M8,48l1,0 0,1 -1,0 0,-1z M9,48l1,0 0,1 -1,0 0,-1z M10,48l1,0 0,1 -1,0 0,-1z M12,48l1,0 0,1 -1,0 0,-1z M13,48l1,0 0,1 -1,0 0,-1z M15,48l1,0 0,1 -1,0 0,-1z M17,48l1,0 0,1 -1,0 0,-1z M18,48l1,0 0,1 -1,0 0,-1z M20,48l1,0 0,1 -1,0 0,-1z M23,48l1,0 0,1 -1,0 0,-1z M24,48l1,0 0,1 -1,0 0,-1z M25,48l1,0 0,1 -1,0 0,-1z M26,48l1,0 0,1 -1,0 0,-1z M27,48l1,0 0,1 -1,0 0,-1z M28,48l1,0 0,1 -1,0 0,-1z M30,48l1,0 0,1 -1,0 0,-1z M31,48l1,0 0,1 -1,0 0,-1z M32,48l1,0 0,1 -1,0 0,-1z M34,48l1,0 0,1 -1,0 0,-1z M37,48l1,0 0,1 -1,0 0,-1z M38,48l1,0 0,1 -1,0 0,-1z M39,48l1,0 0,1 -1,0 0,-1z M40,48l1,0 0,1 -1,0 0,-1z M42,48l1,0 0,1 -1,0 0,-1z M43,48l1,0 0,1 -1,0 0,-1z M44,48l1,0 0,1 -1,0 0,-1z M45,48l1,0 0,1 -1,0 0,-1z M46,48l1,0 0,1 -1,0 0,-1z M47,48l1,0 0,1 -1,0 0,-1z M48,48l1,0 0,1 -1,0 0,-1z M49,48l1,0 0,1 -1,0 0,-1z M50,48l1,0 0,1 -1,0 0,-1z M0,49l1,0 0,1 -1,0 0,-1z M2,49l1,0 0,1 -1,0 0,-1z M3,49l1,0 0,1 -1,0 0,-1z M4,49l1,0 0,1 -1,0 0,-1z M6,49l1,0 0,1 -1,0 0,-1z M9,49l1,0 0,1 -1,0 0,-1z M10,49l1,0 0,1 -1,0 0,-1z M12,49l1,0 0,1 -1,0 0,-1z M13,49l1,0 0,1 -1,0 0,-1z M16,49l1,0 0,1 -1,0 0,-1z M17,49l1,0 0,1 -1,0 0,-1z M18,49l1,0 0,1 -1,0 0,-1z M19,49l1,0 0,1 -1,0 0,-1z M20,49l1,0 0,1 -1,0 0,-1z M21,49l1,0 0,1 -1,0 0,-1z M27,49l1,0 0,1 -1,0 0,-1z M28,49l1,0 0,1 -1,0 0,-1z M32,49l1,0 0,1 -1,0 0,-1z M36,49l1,0 0,1 -1,0 0,-1z M37,49l1,0 0,1 -1,0 0,-1z M41,49l1,0 0,1 -1,0 0,-1z M43,49l1,0 0,1 -1,0 0,-1z M44,49l1,0 0,1 -1,0 0,-1z M50,49l1,0 0,1 -1,0 0,-1z M51,49l1,0 0,1 -1,0 0,-1z M0,50l1,0 0,1 -1,0 0,-1z M2,50l1,0 0,1 -1,0 0,-1z M3,50l1,0 0,1 -1,0 0,-1z M4,50l1,0 0,1 -1,0 0,-1z M6,50l1,0 0,1 -1,0 0,-1z M9,50l1,0 0,1 -1,0 0,-1z M10,50l1,0 0,1 -1,0 0,-1z M15,50l1,0 0,1 -1,0 0,-1z M17,50l1,0 0,1 -1,0 0,-1z M18,50l1,0 0,1 -1,0 0,-1z M19,50l1,0 0,1 -1,0 0,-1z M21,50l1,0 0,1 -1,0 0,-1z M24,50l1,0 0,1 -1,0 0,-1z M25,50l1,0 0,1 -1,0 0,-1z M27,50l1,0 0,1 -1,0 0,-1z M28,50l1,0 0,1 -1,0 0,-1z M29,50l1,0 0,1 -1,0 0,-1z M30,50l1,0 0,1 -1,0 0,-1z M34,50l1,0 0,1 -1,0 0,-1z M35,50l1,0 0,1 -1,0 0,-1z M37,50l1,0 0,1 -1,0 0,-1z M38,50l1,0 0,1 -1,0 0,-1z M39,50l1,0 0,1 -1,0 0,-1z M40,50l1,0 0,1 -1,0 0,-1z M45,50l1,0 0,1 -1,0 0,-1z M46,50l1,0 0,1 -1,0 0,-1z M47,50l1,0 0,1 -1,0 0,-1z M49,50l1,0 0,1 -1,0 0,-1z M51,50l1,0 0,1 -1,0 0,-1z M52,50l1,0 0,1 -1,0 0,-1z M0,51l1,0 0,1 -1,0 0,-1z M6,51l1,0 0,1 -1,0 0,-1z M9,51l1,0 0,1 -1,0 0,-1z M11,51l1,0 0,1 -1,0 0,-1z M13,51l1,0 0,1 -1,0 0,-1z M14,51l1,0 0,1 -1,0 0,-1z M18,51l1,0 0,1 -1,0 0,-1z M21,51l1,0 0,1 -1,0 0,-1z M22,51l1,0 0,1 -1,0 0,-1z M23,51l1,0 0,1 -1,0 0,-1z M24,51l1,0 0,1 -1,0 0,-1z M27,51l1,0 0,1 -1,0 0,-1z M28,51l1,0 0,1 -1,0 0,-1z M30,51l1,0 0,1 -1,0 0,-1z M31,51l1,0 0,1 -1,0 0,-1z M33,51l1,0 0,1 -1,0 0,-1z M34,51l1,0 0,1 -1,0 0,-1z M35,51l1,0 0,1 -1,0 0,-1z M36,51l1,0 0,1 -1,0 0,-1z M37,51l1,0 0,1 -1,0 0,-1z M39,51l1,0 0,1 -1,0 0,-1z M40,51l1,0 0,1 -1,0 0,-1z M43,51l1,0 0,1 -1,0 0,-1z M44,51l1,0 0,1 -1,0 0,-1z M48,51l1,0 0,1 -1,0 0,-1z M0,52l1,0 0,1 -1,0 0,-1z M1,52l1,0 0,1 -1,0 0,-1z M2,52l1,0 0,1 -1,0 0,-1z M3,52l1,0 0,1 -1,0 0,-1z M4,52l1,0 0,1 -1,0 0,-1z M5,52l1,0 0,1 -1,0 0,-1z M6,52l1,0 0,1 -1,0 0,-1z M8,52l1,0 0,1 -1,0 0,-1z M10,52l1,0 0,1 -1,0 0,-1z M11,52l1,0 0,1 -1,0 0,-1z M12,52l1,0 0,1 -1,0 0,-1z M15,52l1,0 0,1 -1,0 0,-1z M19,52l1,0 0,1 -1,0 0,-1z M22,52l1,0 0,1 -1,0 0,-1z M25,52l1,0 0,1 -1,0 0,-1z M26,52l1,0 0,1 -1,0 0,-1z M27,52l1,0 0,1 -1,0 0,-1z M28,52l1,0 0,1 -1,0 0,-1z M35,52l1,0 0,1 -1,0 0,-1z M37,52l1,0 0,1 -1,0 0,-1z M39,52l1,0 0,1 -1,0 0,-1z M41,52l1,0 0,1 -1,0 0,-1z M44,52l1,0 0,1 -1,0 0,-1z M45,52l1,0 0,1 -1,0 0,-1z M48,52l1,0 0,1 -1,0 0,-1z M51,52l1,0 0,1 -1,0 0,-1z " fill="black" stroke="none"/></svg><svg width="7mm" height="7mm" x="19.5mm" y="19.5mm" viewBox="0 0 19.8 19.8" xml:space="preserve"><polygon points="18.3,0.7 1.6,0.7 0.7,0.7 0.7,1.6 0.7,18.3 0.7,19.1 1.6,19.1 18.3,19.1 19.1,19.1 19.1,18.3 19.1,1.6 19.1,0.7 " fill="black"/><rect x="8.3" y="4" width="3.3" height="11" fill="white"/><rect x="4.4" y="7.9" width="11" height="3.3" fill="white"/><polygon points="0.7,1.6 0.7,18.3 0.7,19.1 1.6,19.1 18.3,19.1 19.1,19.1 19.1,18.3 19.1,1.6 19.1,0.7 18.3,0.7 1.6,0.7 0.7,0.7 " fill="none" stroke="white" stroke-width="1.4357" stroke-miterlimit="10"/></svg></svg><text x="0mm" y="66mm" font-size="8pt" line-height="11pt" font-weight="bold">Währung</text><text x="0mm" y="70mm" font-size="10pt" line-height="11pt">CHF</text><text x="22mm" y="66mm" font-size="8pt" line-height="11pt" font-weight="bold">Betrag</text><svg x="9.7mm" y="66.7mm" width="40.6mm" height="15.6mm"><rect x="0.3mm" y="0.3mm" width="3mm" height="0.2645833333333333mm" fill="black" stroke="none"/><rect x="0.3mm" y="0.3mm" width="0.2645833333333333mm" height="3mm" fill="black" stroke="none"/><rect x="37.3mm" y="0.3mm" width="3mm" height="0.2645833333333333mm" fill="black" stroke="none"/><rect x="40.03541666666666mm" y="0.3mm" width="0.2645833333333333mm" height="3mm" fill="black" stroke="none"/><rect x="0.3mm" y="15.035416666666668mm" width="3mm" height="0.2645833333333333mm" fill="black" stroke="none"/><rect x="0.3mm" y="12.3mm" width="0.2645833333333333mm" height="3mm" fill="black" stroke="none"/><rect x="37.3mm" y="15.035416666666668mm" width="3mm" height="0.2645833333333333mm" fill="black" stroke="none"/><rect x="40.03541666666666mm" y="12.3mm" width="0.2645833333333333mm" height="3mm" fill="black" stroke="none"/></svg><!----><text x="51mm" y="-4.76mm"><tspan x="51mm" dy="22pt" font-size="8pt" line-height="11pt" font-weight="bold">Konto / Zahlbar an</tspan><tspan x="51mm" dy="11pt" font-size="10pt" line-height="11pt">CH65 0900 0000 8734 7592 5</tspan><tspan x="51mm" dy="11pt" font-size="10pt" line-height="11pt">Christian Kuster</tspan><tspan x="51mm" dy="11pt" font-size="10pt" line-height="11pt">Höhenstrasse 21</tspan><tspan x="51mm" dy="11pt" font-size="10pt" line-height="11pt">8342 Wernetshausen</tspan><tspan x="51mm" dy="22pt" font-size="8pt" line-height="11pt" font-weight="bold">Zusätzliche Informationen</tspan><tspan x="51mm" dy="11pt" font-size="10pt" line-height="11pt">Ferropoly</tspan></text><text x="51mm" y="59mm" font-size="8pt" line-height="11pt" font-weight="bold">Zahlbar durch (Name/Adresse)</text><svg x="50.7mm" y="59.7mm" width="65.6mm" height="25.6mm"><rect x="0.3mm" y="0.3mm" width="3mm" height="0.2645833333333333mm" fill="black" stroke="none"/><rect x="0.3mm" y="0.3mm" width="0.2645833333333333mm" height="3mm" fill="black" stroke="none"/><rect x="62.3mm" y="0.3mm" width="3mm" height="0.2645833333333333mm" fill="black" stroke="none"/><rect x="65.03541666666666mm" y="0.3mm" width="0.2645833333333333mm" height="3mm" fill="black" stroke="none"/><rect x="0.3mm" y="25.035416666666666mm" width="3mm" height="0.2645833333333333mm" fill="black" stroke="none"/><rect x="0.3mm" y="22.3mm" width="0.2645833333333333mm" height="3mm" fill="black" stroke="none"/><rect x="62.3mm" y="25.035416666666666mm" width="3mm" height="0.2645833333333333mm" fill="black" stroke="none"/><rect x="65.03541666666666mm" y="22.3mm" width="0.2645833333333333mm" height="3mm" fill="black" stroke="none"/></svg><text x="0mm" y="85.18mm"/></svg></svg></svg>